<?xml version="1.0" encoding="iso-8859-1"?>
<!-- Uploaded to: SVG Repo, www.svgrepo.com, Generator: SVG Repo Mixer Tools -->
<svg fill="#000000" height="800px" width="800px" version="1.1" id="Capa_1" xmlns="http://www.w3.org/2000/svg" xmlns:xlink="http://www.w3.org/1999/xlink" 
	 viewBox="0 0 538.049 538.049" xml:space="preserve">
<g>
	<path d="M536.516,139.728c-1.518-2.63-4.029-4.544-6.959-5.333L386.856,96.182c-6.122-1.626-12.399,1.973-14.013,8.095
		l-3.013,11.191c-20.756-6.72-65.438-19.668-100.853-19.668c-35.224,0.048-80.013,13.009-100.793,19.68l-3.013-11.215
		c-1.614-6.122-7.891-9.709-14.025-8.095L8.492,134.384c-2.929,0.789-5.44,2.714-6.959,5.333c-1.519,2.618-1.925,5.751-1.148,8.692
		l76.474,285.378c1.351,5.129,5.978,8.477,11.048,8.477c0.98,0,1.973-0.131,2.965-0.383l142.701-38.213
		c2.929-0.777,5.428-2.714,6.947-5.333c0.717-1.231,1.112-2.547,1.339-3.898c8.537-1.076,17.779-1.805,27.165-1.805
		c9.374,0,18.64,0.741,27.153,1.805c0.239,1.351,0.634,2.702,1.327,3.898c1.519,2.642,4.017,4.556,6.959,5.333l142.689,38.213
		c1.004,0.251,1.985,0.383,2.989,0.383c5.046,0,9.685-3.348,11.048-8.477l76.474-285.378
		C538.441,145.479,538.034,142.347,536.516,139.728z M95.99,416.797L25.47,153.55l60.297-16.165l2.451,9.206l-43.127,11.55
		c-4.567,1.244-7.293,5.943-6.074,10.522c1.04,3.838,4.496,6.361,8.298,6.361c0.729,0,1.47-0.096,2.224-0.287l43.127-11.562
		l3.204,11.957L52.731,186.67c-4.579,1.219-7.293,5.918-6.074,10.522c1.028,3.814,4.496,6.361,8.286,6.361
		c0.741,0,1.483-0.096,2.236-0.299l43.127-11.55l3.204,11.932l-43.127,11.562c-4.579,1.244-7.293,5.943-6.074,10.522
		c1.028,3.838,4.496,6.361,8.298,6.361c0.729,0,1.47-0.096,2.224-0.275l43.115-11.562l10.856,40.497c-0.012,0-0.012,0-0.012,0
		l-43.115,11.55c-4.579,1.219-7.293,5.93-6.074,10.51c1.028,3.826,4.496,6.373,8.298,6.373c0.717,0,1.47-0.108,2.224-0.299
		l43.103-11.562l18.497,69.025l-43.115,11.562c-4.567,1.231-7.293,5.93-6.062,10.51c1.028,3.838,4.484,6.361,8.286,6.361
		c0.729,0,1.47-0.096,2.236-0.287l43.115-11.562l3.204,11.957l-43.115,11.562c-4.591,1.231-7.305,5.93-6.086,10.522
		c1.028,3.814,4.508,6.361,8.298,6.361c0.729,0,1.483-0.096,2.224-0.287l43.115-11.562l2.463,9.195L95.99,416.797z M236.921,371.96
		l-62.796-234.348c8.059-2.606,20.505-6.337,34.65-9.84l31.996,243.662C239.444,371.625,238.225,371.828,236.921,371.96z
		 M260.428,369.915c-0.849,0.024-1.686,0.072-2.547,0.131l-32.283-246.053c11.646-2.391,23.614-4.197,34.829-4.89L260.428,369.915
		L260.428,369.915z M404.109,184.015c2.116-7.879,10.211-12.554,18.114-10.45c7.891,2.116,12.566,10.211,10.438,18.09
		c-2.116,7.891-10.211,12.554-18.114,10.438C406.692,199.977,402.005,191.906,404.109,184.015z M383.723,260.106
		c2.14-7.879,10.211-12.554,18.09-10.45c7.891,2.128,12.578,10.211,10.462,18.09c-2.128,7.891-10.211,12.578-18.102,10.474
		C386.306,276.092,381.607,267.986,383.723,260.106z M280.192,370.022c-0.861-0.048-1.722-0.096-2.571-0.143V119.043
		c11.215,0.67,23.172,2.463,34.829,4.842L280.192,370.022z M301.116,371.96c-1.267-0.167-2.499-0.335-3.802-0.49l31.972-243.757
		c14.157,3.527,26.603,7.282,34.626,9.9L301.116,371.96z M373.787,354.3c-7.867-2.104-12.566-10.211-10.438-18.102
		c2.104-7.879,10.211-12.554,18.078-10.438c7.891,2.116,12.566,10.211,10.438,18.102C389.761,351.753,381.667,356.416,373.787,354.3
		z M419.724,392.106c-2.116,7.879-10.199,12.554-18.09,10.438c-7.855-2.104-12.566-10.211-10.45-18.114
		c2.128-7.879,10.211-12.566,18.102-10.426C417.178,376.108,421.817,384.227,419.724,392.106z M440.134,316.015
		c-2.128,7.879-10.211,12.566-18.102,10.438c-7.891-2.116-12.566-10.211-10.45-18.102c2.116-7.891,10.211-12.566,18.09-10.45
		C437.563,300.029,442.203,308.136,440.134,316.015z M460.52,239.888c-2.116,7.891-10.211,12.59-18.102,10.474
		c-7.891-2.116-12.566-10.211-10.45-18.114c2.116-7.867,10.211-12.554,18.114-10.438
		C457.961,223.926,462.612,232.008,460.52,239.888z M480.906,163.785c-2.116,7.879-10.211,12.566-18.114,10.438
		c-7.867-2.104-12.554-10.187-10.438-18.078c2.116-7.867,10.211-12.554,18.114-10.438
		C478.347,147.823,482.998,155.905,480.906,163.785z"/>
</g>
</svg>